<?xml version="1.0" encoding="UTF-8"?>
<svg width="216px" height="60px" viewBox="0 0 216 60" version="1.1" xmlns="http://www.w3.org/2000/svg" xmlns:xlink="http://www.w3.org/1999/xlink">
    <title>assets/aspect/aspect-logotype</title>
    <g id="assets/aspect/aspect-logotype" stroke="none" stroke-width="1" fill="none" fill-rule="evenodd">
        <path d="M81.7490229,46 L84.174804,38.1386724 L95.5624986,38.1386724 L97.9882797,46 L105.130857,46 L93.8554675,13.5888693 L85.8818352,13.5888693 L74.6289062,46 L81.7490229,46 Z M93.9902331,33.0625008 L85.7470695,33.0625008 L89.812499,19.8779314 L89.9472646,19.8779314 L93.9902331,33.0625008 Z M116.251755,46.4941406 C122.450973,46.4941406 126.785934,43.3945314 126.785934,38.6777349 L126.785934,38.6552739 C126.785934,35.106446 124.719528,33.1298837 119.688278,32.0742197 L115.600388,31.1982432 C113.174607,30.6816416 112.343552,29.8730479 112.343552,28.6376964 L112.343552,28.6152355 C112.343552,27.0654309 113.758591,26.0546888 116.027146,26.0546888 C118.452927,26.0546888 119.867966,27.3574231 120.092575,29.0869152 L120.115036,29.2666027 L126.157028,29.2666027 L126.157028,29.0419933 C125.999801,24.8193373 122.428512,21.427736 116.027146,21.427736 C109.89531,21.427736 105.942185,24.3925795 105.942185,28.9746105 L105.942185,28.9970714 C105.942185,32.5908212 108.300584,34.9267585 112.972458,35.9150397 L117.060349,36.7685553 C119.418747,37.2851568 120.227341,38.0263677 120.227341,39.3066411 L120.227341,39.329102 C120.227341,40.8789066 118.722458,41.8447268 116.251755,41.8447268 C113.623825,41.8447268 112.208786,40.744141 111.782029,38.8574223 L111.737107,38.6552739 L105.33574,38.6552739 L105.358201,38.8574223 C105.874803,43.4169924 109.580857,46.4941406 116.251755,46.4941406 Z M135.278902,53.8613276 L135.278902,41.8896487 L135.413668,41.8896487 C136.716402,44.7421876 139.434175,46.4941406 142.870698,46.4941406 C148.890229,46.4941406 152.618745,41.777344 152.618745,33.9609383 L152.618745,33.9384773 C152.618745,26.0996107 148.890229,21.427736 142.780855,21.427736 C139.366792,21.427736 136.738863,23.2021499 135.436129,26.1220716 L135.278902,26.1220716 L135.278902,21.9218766 L128.720309,21.9218766 L128.720309,53.8613276 L135.278902,53.8613276 Z M140.624605,41.0585941 C137.435152,41.0585941 135.256441,38.3183599 135.256441,33.9833992 L135.256441,33.9609383 C135.256441,29.6035167 137.435152,26.8632825 140.624605,26.8632825 C143.881441,26.8632825 145.947847,29.5361339 145.947847,33.9384773 L145.947847,33.9609383 C145.947847,38.3408208 143.881441,41.0585941 140.624605,41.0585941 Z M165.671283,46.4941406 C172.544329,46.4941406 175.868548,42.4287112 176.609759,38.8798833 L176.677141,38.632813 L170.657611,38.632813 L170.612689,38.7675786 C170.141009,40.1152348 168.501361,41.5976565 165.806048,41.5976565 C162.459369,41.5976565 160.370502,39.3515629 160.303119,35.5107429 L176.87929,35.5107429 L176.87929,33.4892586 C176.87929,26.2119154 172.454486,21.427736 165.401752,21.427736 C158.349018,21.427736 153.83437,26.32422 153.83437,33.9833992 L153.83437,34.0058602 C153.83437,41.7099612 158.304096,46.4941406 165.671283,46.4941406 Z M170.590228,31.3779306 L160.370502,31.3779306 C160.79726,28.1210949 162.818744,26.32422 165.514056,26.32422 C168.23183,26.32422 170.185931,28.0537121 170.590228,31.3779306 Z M189.954289,46.4941406 C196.378117,46.4941406 200.53339,42.496094 200.847843,37.2402349 L200.847843,37.1054693 L194.738468,37.1054693 L194.716007,37.3076178 C194.266789,39.7333988 192.62714,41.3505862 189.999211,41.3505862 C186.764836,41.3505862 184.743352,38.6777349 184.743352,33.9609383 L184.743352,33.9384773 C184.743352,29.3339855 186.764836,26.5712903 189.97675,26.5712903 C192.694523,26.5712903 194.28925,28.3232433 194.693546,30.6142588 L194.738468,30.8164072 L200.825382,30.8164072 L200.825382,30.6591807 C200.578312,25.4482435 196.423039,21.427736 189.886906,21.427736 C182.676946,21.427736 178.072454,26.2119154 178.072454,33.9160164 L178.072454,33.9384773 C178.072454,41.7099612 182.609563,46.4941406 189.954289,46.4941406 Z M212.283194,46.4941406 C213.653311,46.4941406 214.708975,46.359375 215.450186,46.2470703 L215.450186,41.44043 C215.045889,41.4853519 214.619131,41.5527347 214.035147,41.5527347 C212.058584,41.5527347 211.047842,40.7890628 211.047842,38.5429692 L211.047842,26.8632825 L215.450186,26.8632825 L215.450186,21.9218766 L211.047842,21.9218766 L211.047842,16.0371113 L204.421866,16.0371113 L204.421866,21.9218766 L201.075187,21.9218766 L201.075187,26.8632825 L204.421866,26.8632825 L204.421866,39.2617192 C204.421866,44.4277345 206.937491,46.4941406 212.283194,46.4941406 Z" id="Aspect" fill="#121212" fill-rule="nonzero"></path>
        <g id="aspect-icon-copy-2">
            <g id="Group" transform="translate(0.000000, 0.000000)">
                <path d="M29.9682539,3 C19.1817145,3 12.2133738,4.01857669 8.11609382,8.12019706 C4.017972,12.2226601 3,19.1992375 3,30 C3,40.8007625 4.017972,47.7773399 8.11609382,51.8798029 C12.2133738,55.9814233 19.1817145,57 29.9682539,57 C40.7547934,57 47.7231341,55.9814233 51.8204141,51.8798029 C55.9185359,47.7773399 56.9365079,40.8007625 56.9365079,30 C56.9365079,19.1992375 55.9185359,12.2226601 51.8204141,8.12019706 C47.7231341,4.0185767 40.7547934,3 29.9682539,3 Z" id="Shape-path" stroke="#121212" stroke-width="6"></path>
                <line x1="42.28125" y1="43" x2="17.09375" y2="17" id="Line" stroke="#121212" stroke-width="6" transform="translate(29.593750, 30.000000) rotate(-810.000000) translate(-29.593750, -30.000000) "></line>
                <line x1="29.203125" y1="30.2002552" x2="13.7471302" y2="14.75" id="Line-Copy-2" stroke="#121212" stroke-width="6" transform="translate(21.475128, 22.475128) rotate(-810.000000) translate(-21.475128, -22.475128) "></line>
                <circle id="Oval" fill="#121212" cx="39.5" cy="39.5" r="5.5"></circle>
            </g>
        </g>
    </g>
</svg>